<?xml version="1.0" encoding="UTF-8" standalone="no"?>
<svg
   xmlns:dc="http://purl.org/dc/elements/1.1/"
   xmlns:cc="http://creativecommons.org/ns#"
   xmlns:rdf="http://www.w3.org/1999/02/22-rdf-syntax-ns#"
   xmlns:svg="http://www.w3.org/2000/svg"
   xmlns="http://www.w3.org/2000/svg"
   xmlns:xlink="http://www.w3.org/1999/xlink"
   width="605" height="642" viewBox="-4 0 605 642">
<metadata><rdf:RDF><cc:Work
       rdf:about=""><dc:format>image/svg+xml</dc:format><dc:type
         rdf:resource="http://purl.org/dc/dcmitype/StillImage" /></cc:Work></rdf:RDF></metadata>
<defs>
<g id="Star" transform="translate(133,279) scale(0.08,-0.08)">
<path stroke-width="50" stroke="#000000" fill="none" d="M500,950.731
L190.983,-0.326
L1000,587.46
L0,587.46
L809.017,-0.326Z"/>
<path style="fill:#4B5EAA;stroke:none" d="M500,950.731
L190.983,-0.326
L1000,587.46
L0,587.46
L809.017,-0.326Z"/>
</g>
</defs>
<g id="AllExceptText" transform="translate(0,-37)">
<g id="Fasces1">
		<rect
   x="502.15"
   y="107.457"
   transform="matrix(-0.7844 -0.6202 0.6202 -0.7844 819.1045 576.8354)"
   fill="#DD7711"
   stroke="#000000"
   stroke-width="3"
   width="15.309"
   height="77.206"
   style="fill:#DD7711;fill-opacity:1" />
	
		<rect
   x="162.179"
   y="519.61"
   transform="matrix(-0.7845 -0.6202 0.6202 -0.7845 -43.1371 1101.4335)"
   fill="#DD7711"
   stroke="#000000"
   stroke-width="3"
   width="15.308"
   height="77.206"
   style="fill:#DD7711;fill-opacity:1" />
	<g
   id="g242">
		<path
   fill="#FFCE2A"
   stroke="#000000"
   stroke-width="3"
   d="M464.754,157.706L150.516,544.691c0,0,8.236,10.449,17.957,17.832 c9.702,7.369,22.043,11.168,22.043,11.168l315.276-385.175c0,0-2.483-7.303-15.92-17.964 C477.486,160.725,464.754,157.706,464.754,157.706z"
   style="fill:#fcd116;fill-opacity:1" />
		<g
   id="g246">
			<line
   fill="none"
   stroke="#000000"
   stroke-width="3"
   x1="200.5"
   y1="502.879"
   x2="158.5"
   y2="553.879"
   id="line248" />
			<line
   fill="none"
   stroke="#000000"
   stroke-width="3"
   x1="211"
   y1="510.879"
   x2="169.5"
   y2="562.379"
   id="line250" />
			<line
   fill="none"
   stroke="#000000"
   stroke-width="3"
   x1="220.5"
   y1="518.379"
   x2="181"
   y2="569.379"
   id="line252" />
			<polygon
   fill="#FACC2B"
   stroke="#000000"
   stroke-width="3"
   points="225.5,530.379 216.5,541.379 157.5,535.879 166.5,525.379         "
   style="fill:#fcd116;fill-opacity:1" />
			<polygon
   fill="#FACC2B"
   stroke="#000000"
   stroke-width="3"
   points="179,509.879 187.5,500.379 206.5,552.879 198.284,562.949         "
   style="fill:#fcd116;fill-opacity:1" />
		</g>
		<g
   id="g258">
			<line
   fill="none"
   stroke="#000000"
   stroke-width="3"
   x1="455.557"
   y1="226.823"
   x2="497.557"
   y2="175.823"
   id="line260" />
			<line
   fill="none"
   stroke="#000000"
   stroke-width="3"
   x1="445.057"
   y1="218.823"
   x2="486.557"
   y2="167.323"
   id="line262" />
			<line
   fill="none"
   stroke="#000000"
   stroke-width="3"
   x1="423.277"
   y1="226.545"
   x2="475.057"
   y2="160.323"
   id="line264" />
			<polygon
   fill="#FACC2B"
   stroke="#000000"
   stroke-width="3"
   points="431.833,199.162 440.557,188.323 500.557,193.823 490.557,204.323    "
   style="fill:#fcd116;fill-opacity:1" />
			<polygon
   fill="#FACC2B"
   stroke="#000000"
   stroke-width="3"
   points="477.057,221.823 467.557,232.323 449.557,176.823 458.658,166.241    "
   style="fill:#fcd116;fill-opacity:1" />
		</g>
	</g>
	<path
   fill="#FFCE2A"
   stroke="#000000"
   stroke-width="3"
   d="M594.28,137.243c0,0,9.887,34.636-13.779,59.969 c-22.046,23.599-54.667,14.667-54.667,14.667s5-28.333,1.333-39c-3.59-10.441-4.443-10.833-10.146-16.25 s-20.857-20.291-26.521-25.75c-9.334-9-10.667-14.667-7.334-18c1.841-1.841,8.641-0.684,18.667,5.667 c10,6.333,24.285,19.479,41.131,24.685c17.202,5.315,27.202,3.982,34.78,0.855C585.171,141.022,594.28,137.243,594.28,137.243z" />
</g>
<g id="Fasces2">
		<rect
   x="80.37"
   y="107.457"
   transform="matrix(0.7844 -0.6202 0.6202 0.7844 -71.616 86.0865)"
   fill="#DD7711"
   stroke="#000000"
   stroke-width="3"
   width="15.309"
   height="77.206"
   style="fill:#DD7711;fill-opacity:1" />
		<rect
   x="420.341"
   y="519.61"
   transform="matrix(0.7844 -0.6202 0.6202 0.7844 -253.9508 385.7855)"
   fill="#DD7711"
   stroke="#000000"
   stroke-width="3"
   width="15.308"
   height="77.206"
   style="fill:#DD7711;fill-opacity:1" />
	<g
   id="g278">
		<path
   fill="#FFCE2A"
   stroke="#000000"
   stroke-width="3"
   d="M133.075,157.706l314.239,386.986c0,0-8.236,10.449-17.957,17.832 c-9.701,7.369-22.043,11.168-22.043,11.168L92.037,188.517c0,0,2.483-7.303,15.92-17.964 C120.342,160.725,133.075,157.706,133.075,157.706z"
   style="fill:#fcd116;fill-opacity:1" />
		<g
   id="g282">
			<line
   fill="none"
   stroke="#000000"
   stroke-width="3"
   x1="397.329"
   y1="502.879"
   x2="439.329"
   y2="553.879"
   id="line284" />
			<line
   fill="none"
   stroke="#000000"
   stroke-width="3"
   x1="386.829"
   y1="510.879"
   x2="428.329"
   y2="562.379"
   id="line286" />
			<line
   fill="none"
   stroke="#000000"
   stroke-width="3"
   x1="377.329"
   y1="518.379"
   x2="416.829"
   y2="569.379"
   id="line288" />
			<polygon
   fill="#FACC2B"
   stroke="#000000"
   stroke-width="3"
   points="372.329,530.379 381.329,541.379 440.329,535.879 431.329,525.379    "
   style="fill:#fcd116;fill-opacity:1" />
			<polygon
   fill="#FACC2B"
   stroke="#000000"
   stroke-width="3"
   points="418.829,509.879 410.329,500.379 391.329,552.879 399.546,562.949    "
   style="fill:#fcd116;fill-opacity:1" />
		</g>
		<g
   id="g294">
			<line
   fill="none"
   stroke="#000000"
   stroke-width="3"
   x1="142.272"
   y1="226.823"
   x2="100.272"
   y2="175.823"
   id="line296" />
			<line
   fill="none"
   stroke="#000000"
   stroke-width="3"
   x1="152.772"
   y1="218.823"
   x2="111.272"
   y2="167.323"
   id="line298" />
			<line
   fill="none"
   stroke="#000000"
   stroke-width="3"
   x1="174.551"
   y1="226.545"
   x2="122.772"
   y2="160.323"
   id="line300" />
			<polygon
   fill="#FACC2B"
   stroke="#000000"
   stroke-width="3"
   points="165.996,199.162 157.272,188.323 97.272,193.823 107.272,204.323    "
   style="fill:#fcd116;fill-opacity:1" />
			<polygon
   fill="#FACC2B"
   stroke="#000000"
   stroke-width="3"
   points="120.772,221.823 130.272,232.323 148.272,176.823 139.17,166.241    "
   style="fill:#fcd116;fill-opacity:1" />
		</g>
	</g>
	<path
   fill="#FFCE2A"
   stroke="#000000"
   stroke-width="3"
   d="M3.548,137.243c0,0-9.887,34.636,13.779,59.969 c22.046,23.599,54.667,14.667,54.667,14.667s-5-28.333-1.333-39c3.59-10.441,4.443-10.833,10.146-16.25s20.857-20.291,26.521-25.75 c9.334-9,10.667-14.667,7.334-18c-1.841-1.841-8.641-0.684-18.667,5.667c-10,6.333-24.285,19.479-41.131,24.685 c-17.202,5.315-27.202,3.982-34.78,0.855C12.658,141.022,3.548,137.243,3.548,137.243z" />
</g>
<g id="GreenBG">
		<path
   fill="#00AE4D"
   d="M446.351,464.013c33.098-47.089,66.895-139.891,47.283-273.245c-0.735-5.002-80,76-126.251-5h-64.497 h-4.252H233.93c-46.251,81-125.516-0.002-126.251,5c-19.77,134.434,14.736,227.655,48.086,274.379L301.5,187.187L446.351,464.013z    "
   style="fill:#007a5e;fill-opacity:1" />
</g>
<g
   id="YellowBG">
		<path
   fill="#FFCE2A"
   d="M301.002,187.155h67.938c45.705,80.443,124.035-0.002,124.762,4.965 c19.764,135.066-15.364,228.251-48.671,274.104c-54.103,74.484-144.029,122.032-144.029,122.032V187.155z"
   style="fill:#fcd116;fill-opacity:1" />
</g>
<g id="Center_shield_red">
		<path
   fill="#EE2526"
   d="M300.757,586.777l-1.395-0.775c-21.256-11.917-94.273-55.807-141.222-120.118 c-0.206-0.282-0.411-0.568-0.617-0.856l143.975-274.605l143.098,273.473c-0.477,0.672-0.951,1.335-1.427,1.986 C396.237,530.179,323.366,574.076,302.15,586L300.757,586.777L300.757,586.777z"
   style="fill:#ce1126;fill-opacity:1" />
		<path
   fill="#000000"
   d="M301.5,187.187l144.851,276.826c-0.657,0.935-1.313,1.856-1.969,2.755 c-47.709,65.357-122.938,110.11-141.496,120.54l-2.128,1.185l-2.124-1.18c-18.583-10.419-93.986-55.177-141.703-120.545 c-0.388-0.532-0.777-1.076-1.166-1.621L301.5,187.187 M301.497,193.652L159.282,464.9c0.024,0.033,0.048,0.066,0.073,0.1 c20.125,27.57,47.436,54.574,81.17,80.259c27.132,20.659,50.702,34.462,59.576,39.437l0.655,0.364l0.671-0.373 c8.847-4.972,32.373-18.78,59.456-39.437c33.674-25.683,60.952-52.683,81.076-80.251c0.294-0.403,0.588-0.811,0.882-1.223 L301.497,193.652L301.497,193.652z" />
</g>
<g id="Shield_outline">
		<path
   fill="#000000"
   d="M367.383,185.768c15.58,27.285,34.905,36.188,53.714,36.188c17.664,0,34.873-7.853,48.093-15.706 c13.221-7.854,22.452-15.706,24.162-15.706c0.165,0,0.26,0.073,0.282,0.225c20,136-15.548,229.829-49.252,276 c-47.709,65.357-122.938,110.11-141.496,120.54l-2.128,1.185l-2.124-1.18c-18.583-10.419-93.986-55.177-141.703-120.545 c-33.704-46.171-69.252-140-49.252-276c0.022-0.152,0.117-0.225,0.282-0.225c1.711,0,10.943,7.853,24.163,15.706 c13.222,7.854,30.426,15.706,48.093,15.706c18.807,0,38.136-8.905,53.714-36.188h64.704h4.252H367.383 M365.655,188.768h-62.77 h-4.252h-62.977c-14.179,24.013-32.825,36.188-55.441,36.188c-14.915,0-31.611-5.426-49.625-16.127 c-7.045-4.185-12.924-8.335-17.217-11.365c-1.138-0.803-2.293-1.619-3.295-2.305c-8.352,59.648-6.669,115.688,5.011,166.625 c9.179,40.031,24.899,76.688,44.264,103.216c20.127,27.571,47.437,54.575,81.171,80.26c27.132,20.659,50.702,34.462,59.576,39.438 l0.655,0.363l0.671-0.373c8.847-4.972,32.373-18.78,59.456-39.437c33.674-25.683,60.952-52.683,81.076-80.251 c19.365-26.528,35.085-63.185,44.264-103.216c11.68-50.937,13.362-106.978,5.011-166.625c-1.001,0.686-2.156,1.501-3.293,2.304 c-4.293,3.03-10.173,7.181-17.219,11.366c-18.015,10.701-34.711,16.127-49.625,16.127 C398.48,224.955,379.835,212.781,365.655,188.768L365.655,188.768z" />
</g>
<path id="Cameroon_map_outline" transform="translate(-50,-117) scale(1.18,1.18)"
   fill="#4B5EAA"
   stroke="#000000"
   stroke-width="2"
   d="M301.5,299.643c-4.5-0.375-4.5-3.875-8,3.625 c-3.234,6.931-2.5,5,1.5,11.5s4-1.25,5,11.5s4,15-0.5,21.5c-5.438,7.854-10.5,5.5-14,17s-7,15-10.5,25.5s0,14-7,23 s-19,17.5-29.5,21.5s-9,2-18.5,12c-9.17,9.652-8,10.5-12.5,19s-4,9.5-7,12.5s-4,1-2.5,8.5c2.287,11.436,12.5,4,16,10 c9.083,15.572,10.5,6,13.5,13c7.661,17.876,4.5,17,12.5,17.5s6.5,0.5,16.5-1.5s4,0.5,20-4s13.5-4.5,23-4.5s-1.5-2,14,1.5 s19,7.5,28.5,7.5s9.5,3.5,16,0.5c6.307-2.911,6.5-7.5,7-15s-5.5-14.5-11.5-17s-12.5-2-19-5.5s-8.5-3-7.5-10s1.5-12.5,2.5-18 s-0.5-10.5,1-18s0.5-8.5,2-17.5s2-12,2.5-15.5s3.5-3,1-11s2-4-7.5-9.5c-9.169-5.309-11-1.5-13.5-11c-3.474-13.198-4-9-2-13.5 c2.445-5.502,7-3.5,10-6s6.5-5,3.5-9s-6-7-7-12s-0.5-7-3-10.5s-3-4-4-9s0-5.5-3-9.5S301.5,299.643,301.5,299.643z" />
<g
   id="Sword_and_Scales">
	<polygon id="Blade"
   fill="#000000"
   stroke="#000000"
   stroke-width="6"
   points="301.5,257 287.5,536.768 301.5,547.144 315.5,537.268  "
   style="fill:#000000" />
		<rect id="Pommel"
   x="291"
   y="550.268"
   transform="matrix(0.7119 -0.7023 0.7023 0.7119 -307.0563 373.538)"
   fill="#000000"
   stroke="#000000"
   stroke-width="2"
   width="21.5"
   height="21.5" />
	<path id="Hilt"
   fill="none"
   stroke="#000000"
   stroke-width="10"
   d="M262.5,515.517c5.677-4.825,17.684-7.749,39.5-7.749 c21.814,0,35.242,3.509,39.5,7.749" />
	<g id="LeftBasket" transform="translate(50,70) scale(0.8,0.8)"
   style="fill:#000000;fill-opacity:1;stroke:#000000;stroke-opacity:1">
		<path
   fill="#000000"
   stroke="#000000"
   stroke-width="3"
   d="M273.833,482.373c0,12.334-17.013,22.332-38,22.332 s-38-9.998-38-22.332H273.833z" />
		<line
   fill="none"
   stroke="#000000"
   stroke-width="3"
   x1="239.167"
   y1="342.705"
   x2="197.74"
   y2="481.235" />
		<line
   fill="none"
   stroke="#000000"
   stroke-width="3"
   x1="239.167"
   y1="342.705"
   x2="237.833"
   y2="481.372" />
		<line
   fill="none"
   stroke="#000000"
   stroke-width="3"
   x1="239.167"
   y1="342.705"
   x2="273.954"
   y2="481.465" />
	</g>
	<g id="Rightbasket" transform="translate(72,70) scale(0.8,0.8)">
		<path
   stroke="#000000"
   stroke-width="3"
   d="M402.678,482.373c0,12.334-17.013,22.332-38,22.332 c-20.986,0-38-9.998-38-22.332H402.678z"
   style="fill:#000000;fill-opacity:1" />
		<line
   fill="none"
   stroke="#000000"
   stroke-width="3"
   x1="368.012"
   y1="342.705"
   x2="326.585"
   y2="481.235" />
		<line
   fill="none"
   stroke="#000000"
   stroke-width="3"
   x1="368.012"
   y1="342.705"
   x2="366.678"
   y2="481.372" />
		<line
   fill="none"
   stroke="#000000"
   stroke-width="3"
   x1="368.012"
   y1="342.705"
   x2="402.799"
   y2="481.465" />
	</g>
	<line id="Balanceline"
   x1="237.69153"
   y1="344.70499"
   x2="369.48746"
   y2="344.70499"
   style="fill:#000000;stroke:#000000;stroke-width:6.06832075" />
</g>
</g>
<use y="2" xlink:href="#Star"/>
<use x="257" y="2" xlink:href="#Star"/>
<g transform="translate(-4,1)">
<path fill="#FFCE2A" stroke="#000000" stroke-width="3"
   d="M115,24 h-43 l10,27 h33z
      M491,24 h43 l-10,27 h-33z"/>
<path fill="#FFCE2A" stroke="#000000" stroke-width="3"
   d="M115,24 h-43 l10,27 h33z
      M491,24 h43 l-10,27 h-33z"/>
<path fill="#DD7711" stroke="#000000" stroke-linejoin="round" stroke-width="3"
   d="M95,33 l20,18 l36,-40z
      M511,33 l-20,18 l-36,-40z"/>
<rect x="95" y="6" width="416" height="27" fill="#FFCE2A" stroke="#000000" stroke-width="3"/>
</g>
<text style="font-size:17px;font-style:normal;fill:#000000;fill-opacity:1;stroke:none;font-family:Bitstream Vera Sans">
  <tspan x="98" y="27">RÉPUBLIQUE DU CAMEROUN</tspan>
  <tspan x="351" y="27">1</tspan>
  <tspan x="385" y="27">JANVIER 1960</tspan>
</text>
<text style="font-size:14px;font-style:normal;fill:#000000;fill-opacity:1;stroke:none;font-family:Bitstream Vera Sans">
  <tspan x="362" y="25.5">ER</tspan>
</text>
<g transform="translate(-4,90)">
<path fill="#FFCE2A" stroke="#000000" stroke-width="3"
   d="M225,488 h-163 l-12,37 h175z
      M381,488 h163 l12,37 h-175z"/>
<path fill="#FFCE2A" stroke="#000000" stroke-width="3"
   d="M225,488 h-163 l-12,37 h175z
      M381,488 h163 l12,37 h-175z"/>
<path fill="#DD7711" stroke="#000000" stroke-linejoin="round" stroke-width="3"
   d="M205,506 l20,-18 l36,40z
      M401,506 l-20,-18 l-36,40z"/>
<rect x="205" y="506" width="196" height="37" fill="#FFCE2A" stroke="#000000" stroke-width="3"/>
</g>
<g id="Paix" fill="#AA5502" transform="translate(142,516) rotate(36.2)">
	<path
   d="M7.434,80.861c1.038-1.07,2.463-2.381,4.435-3.835c2.424-1.787,4.613-2.532,6.488-2.349 c1.707,0.133,3.346,1.056,4.592,2.747c1.268,1.719,1.757,3.445,1.525,5.137c-0.277,2.336-1.871,4.598-4.266,6.364 c-0.732,0.54-1.43,1.011-2.098,1.285l5.609,7.607l-2.451,1.808L7.434,80.861z M16.636,88.21c0.64-0.253,1.357-0.696,2.174-1.298 c2.959-2.181,3.702-4.948,1.771-7.568c-1.849-2.507-4.518-2.409-7.222-0.415c-1.07,0.789-1.825,1.476-2.165,1.9L16.636,88.21z" />
	<path
   d="M32.556,82.082l2.432,7.427l-2.535,1.87l-7.549-23.745l2.958-2.181l20.48,14.21l-2.62,1.932l-6.432-4.477L32.556,82.082z M37.37,75.575l-5.89-4.095c-1.337-0.927-2.45-1.848-3.541-2.738l-0.057,0.042c0.549,1.334,1.091,2.718,1.576,4.143l2.192,6.865 L37.37,75.575z" />
	<path
   d="M39.579,56.811L53.58,75.799l-2.45,1.808L37.128,58.619L39.579,56.811z" />
	<path
   d="M68.258,64.978l-5.519-2.411c-2.17-0.879-3.559-1.464-4.961-2.127l-0.056,0.042c0.274,1.494,0.487,2.902,0.728,5.292 l0.792,5.852l-2.817,2.078l-1.279-13.886l-12.496-5.269l2.846-2.098l5.789,2.602c1.618,0.72,2.86,1.283,4.115,1.924l0.084-0.062 c-0.296-1.522-0.461-2.749-0.65-4.479l-0.689-6.362l2.818-2.078l1.037,13.499l13.104,5.386L68.258,64.978z" />
</g>
<g id="Patrie" fill="#AA5502" transform="translate(-4,868) rotate(-36.3)">
	<path
   d="M513.775,27.061c1.328,0.676,3.002,1.65,4.973,3.105c2.422,1.789,3.779,3.662,4.157,5.508 c0.376,1.67-0.022,3.507-1.271,5.197c-1.268,1.717-2.773,2.694-4.459,2.973c-2.313,0.424-4.945-0.432-7.338-2.199 c-0.732-0.541-1.388-1.068-1.848-1.625l-5.613,7.604l-2.45-1.81L513.775,27.061z M509.467,38.021 c0.432,0.536,1.066,1.091,1.883,1.694c2.957,2.184,5.818,2.078,7.752-0.541c1.852-2.506,0.971-5.027-1.732-7.023 c-1.07-0.789-1.949-1.309-2.454-1.508L509.467,38.021z" />
	<path
   d="M520.018,51.425l-6.379,4.515l-2.534-1.871l20.463-14.217l2.956,2.183l-7.537,23.761l-2.619-1.934l2.381-7.467 L520.018,51.425z M527.654,54.105l2.176-6.835c0.492-1.551,1.043-2.885,1.572-4.19l-0.057-0.043 c-1.113,0.918-2.275,1.845-3.494,2.729l-5.913,4.119L527.654,54.105z" />
	<path
   d="M543.684,52.018l-5.771-4.262l1.538-2.084l14.051,10.376l-1.538,2.083l-5.801-4.283l-12.477,16.896l-2.478-1.83 L543.684,52.018z" />
	<path
   d="M555.424,57.859c1.427,0.662,3.305,1.83,4.994,3.078c2.619,1.934,3.954,3.66,4.348,5.604 c0.333,1.553-0.088,3.242-1.17,4.707c-1.851,2.506-4.654,3.002-7.152,2.201l-0.063,0.085c1.09,1.589,0.965,3.585-0.041,5.888 c-1.334,3.105-2.236,5.268-2.382,6.291l-2.534-1.871c0.106-0.792,0.869-2.709,2.08-5.47c1.371-3.034,1.086-4.769-1.077-6.496 l-2.309-1.705l-6.071,8.223l-2.45-1.81L555.424,57.859z M551.49,68.313l2.506,1.852c2.619,1.934,5.341,1.725,6.941-0.443 c1.81-2.45,0.826-4.831-1.744-6.771c-1.183-0.873-2.109-1.385-2.588-1.563L551.49,68.313z" />
	<path
   d="M573.209,70.602L559.193,89.58l-2.449-1.81l14.015-18.979L573.209,70.602z" />
	<path
   d="M579.871,91.099l-7.377-5.448l-5.054,6.843l8.223,6.071l-1.518,2.057l-10.673-7.882l14.016-18.979l10.249,7.569 l-1.519,2.055l-7.799-5.76l-4.43,5.998l7.378,5.447L579.871,91.099z" />
</g>
<g id="Travail" fill="#AA5502" transform="translate(0,603)">
	<path
   d="M247.739,2.766h-7.176v-2.59h17.467v2.59h-7.21v21.002h-3.081V2.766z" />
	<path
   d="M260.653,0.49c1.54-0.315,3.746-0.49,5.846-0.49c3.255,0,5.355,0.595,6.826,1.925c1.19,1.05,1.855,2.66,1.855,4.48 c0,3.115-1.96,5.181-4.446,6.021v0.105c1.82,0.63,2.905,2.311,3.465,4.761c0.77,3.29,1.33,5.565,1.82,6.476h-3.15 c-0.385-0.7-0.91-2.695-1.575-5.636c-0.7-3.255-1.96-4.48-4.726-4.585h-2.87v10.221h-3.045V0.49z M263.699,11.236h3.115 c3.255,0,5.321-1.785,5.321-4.48c0-3.045-2.206-4.375-5.426-4.411c-1.47,0-2.52,0.14-3.01,0.28V11.236z" />
	<path
   d="M283.473,16.347l-2.45,7.421h-3.15l8.016-23.592h3.675l8.051,23.592h-3.255l-2.521-7.421H283.473z M291.209,13.967 l-2.31-6.791c-0.525-1.54-0.875-2.94-1.225-4.305h-0.07c-0.35,1.4-0.735,2.835-1.19,4.27l-2.31,6.826H291.209z" />
	<path
   d="M304.403,23.768l-7.701-23.592h3.29l3.676,11.621c1.016,3.185,1.891,6.056,2.521,8.821h0.069 c0.666-2.73,1.646-5.706,2.695-8.786l3.991-11.656h3.255l-8.436,23.592H304.403z" />
	<path
   d="M320.573,16.347l-2.45,7.421h-3.15l8.016-23.592h3.676l8.051,23.592h-3.256l-2.52-7.421H320.573z M328.309,13.967 l-2.31-6.791c-0.525-1.54-0.875-2.94-1.226-4.305h-0.07c-0.35,1.4-0.734,2.835-1.189,4.27l-2.311,6.826H328.309z" />
	<path
   d="M341.223,0.175v23.592h-3.045V0.175H341.223z" />
	<path
   d="M346.543,0.175h3.045v21.037h10.082v2.555h-13.127V0.175z" />
</g>
</svg>
